<svg width="20" height="20" viewBox="0 0 20 20" fill="none" xmlns="http://www.w3.org/2000/svg">
<mask id="mask0_169_980" style="mask-type:alpha" maskUnits="userSpaceOnUse" x="0" y="0" width="20" height="20">
<rect width="20" height="20" fill="#D9D9D9"/>
</mask>
<g mask="url(#mask0_169_980)">
<path d="M5.51292 17.5C5.12931 17.5 4.80903 17.3715 4.55209 17.1146C4.29514 16.8576 4.16667 16.5374 4.16667 16.1538V3.84625C4.16667 3.46264 4.29514 3.14236 4.55209 2.88542C4.80903 2.62847 5.12931 2.5 5.51292 2.5H14.4871C14.8707 2.5 15.191 2.62847 15.4479 2.88542C15.7049 3.14236 15.8333 3.46264 15.8333 3.84625V16.1538C15.8333 16.5374 15.7049 16.8576 15.4479 17.1146C15.191 17.3715 14.8707 17.5 14.4871 17.5H5.51292ZM5.51292 16.6667H14.4871C14.6154 16.6667 14.733 16.6133 14.8398 16.5065C14.9466 16.3997 15 16.2821 15 16.1538V3.84625C15 3.71792 14.9466 3.60035 14.8398 3.49354C14.733 3.38674 14.6154 3.33333 14.4871 3.33333H13.3333V8.42958L11.6667 7.43583L10 8.42958V3.33333H5.51292C5.38459 3.33333 5.26702 3.38674 5.16021 3.49354C5.05341 3.60035 5.00001 3.71792 5.00001 3.84625V16.1538C5.00001 16.2821 5.05341 16.3997 5.16021 16.5065C5.26702 16.6133 5.38459 16.6667 5.51292 16.6667Z" fill="#1C1B1F"/>
</g>
</svg>
