<svg width="20" height="20" viewBox="0 0 20 20" fill="none" xmlns="http://www.w3.org/2000/svg">
<mask id="mask0_169_1108" style="mask-type:alpha" maskUnits="userSpaceOnUse" x="0" y="0" width="20" height="20">
<rect width="20" height="20" fill="#D9D9D9"/>
</mask>
<g mask="url(#mask0_169_1108)">
<path d="M13.3333 9.16671V6.66671H10.8333V5.83337H13.3333V3.33337H14.1667V5.83337H16.6667V6.66671H14.1667V9.16671H13.3333ZM15.7756 16.6667C14.3708 16.6667 12.9306 16.315 11.4552 15.6115C9.9798 14.9079 8.60904 13.9204 7.34293 12.649C6.07695 11.3777 5.09216 10.0071 4.38855 8.53692C3.68508 7.06678 3.33334 5.62928 3.33334 4.22442C3.33334 3.96983 3.41668 3.75768 3.58334 3.58796C3.75001 3.41823 3.95834 3.33337 4.20834 3.33337H6.26918C6.4957 3.33337 6.69334 3.40469 6.86209 3.54733C7.03098 3.68997 7.14536 3.87296 7.20522 4.09629L7.61855 6.08337C7.65702 6.31629 7.65008 6.51983 7.59772 6.694C7.54536 6.86817 7.45293 7.0108 7.32043 7.12192L5.49209 8.82692C5.8339 9.44761 6.21182 10.0243 6.62584 10.5569C7.03987 11.0896 7.4814 11.5941 7.95043 12.0705C8.43432 12.5545 8.95515 13.0046 9.51293 13.4207C10.0706 13.8368 10.6827 14.2297 11.3494 14.5994L13.1315 12.7852C13.2672 12.6389 13.4197 12.5425 13.589 12.4961C13.7583 12.4496 13.9455 12.4402 14.1506 12.468L15.9038 12.8269C16.1303 12.8825 16.3141 12.9966 16.4552 13.1692C16.5962 13.3417 16.6667 13.5396 16.6667 13.763V15.7917C16.6667 16.0417 16.5818 16.25 16.4121 16.4167C16.2424 16.5834 16.0302 16.6667 15.7756 16.6667ZM5.10105 8.04483L6.70043 6.57379C6.75376 6.53101 6.78848 6.47226 6.80459 6.39754C6.82057 6.32268 6.81786 6.25324 6.79647 6.18921L6.42626 4.42317C6.40487 4.33761 6.36751 4.27351 6.31418 4.23087C6.2607 4.1881 6.19126 4.16671 6.10584 4.16671H4.39584C4.33168 4.16671 4.27827 4.1881 4.23564 4.23087C4.19286 4.27351 4.17147 4.32692 4.17147 4.39108C4.18744 4.96053 4.27668 5.55504 4.43918 6.17462C4.60154 6.79435 4.82216 7.41775 5.10105 8.04483ZM12.1427 14.9905C12.7056 15.2693 13.3058 15.4755 13.9431 15.609C14.5804 15.7426 15.1356 15.8142 15.609 15.8238C15.6731 15.8238 15.7265 15.8024 15.7692 15.7596C15.812 15.7168 15.8333 15.6634 15.8333 15.5994V13.9263C15.8333 13.8409 15.812 13.7714 15.7692 13.718C15.7265 13.6646 15.6624 13.6273 15.5769 13.6059L14.0352 13.29C13.9712 13.2687 13.9151 13.266 13.8671 13.2821C13.8189 13.2981 13.7681 13.3328 13.7148 13.3863L12.1427 14.9905Z" fill="#1C1B1F"/>
</g>
</svg>
