<svg width="20" height="20" viewBox="0 0 20 20" fill="none" xmlns="http://www.w3.org/2000/svg">
<mask id="mask0_169_998" style="mask-type:alpha" maskUnits="userSpaceOnUse" x="0" y="0" width="20" height="20">
<rect width="20" height="20" fill="#D9D9D9"/>
</mask>
<g mask="url(#mask0_169_998)">
<path d="M3.42958 15C3.0593 15 2.74236 14.8682 2.47874 14.6046C2.21513 14.341 2.08333 14.024 2.08333 13.6538V6.34625C2.08333 5.97597 2.21513 5.65903 2.47874 5.39542C2.74236 5.13181 3.0593 5 3.42958 5H10.7371C11.1074 5 11.4243 5.13181 11.6879 5.39542C11.9515 5.65903 12.0833 5.97597 12.0833 6.34625V13.6538C12.0833 14.024 11.9515 14.341 11.6879 14.6046C11.4243 14.8682 11.1074 15 10.7371 15H3.42958ZM14.431 9.16667C14.2323 9.16667 14.0691 9.10285 13.9415 8.97521C13.8138 8.84757 13.75 8.68438 13.75 8.48563V5.68104C13.75 5.48229 13.8138 5.3191 13.9415 5.19146C14.0691 5.06382 14.2323 5 14.431 5H17.2356C17.4344 5 17.5976 5.06382 17.7252 5.19146C17.8528 5.3191 17.9167 5.48229 17.9167 5.68104V8.48563C17.9167 8.68438 17.8528 8.84757 17.7252 8.97521C17.5976 9.10285 17.4344 9.16667 17.2356 9.16667H14.431ZM14.5833 8.33333H17.0833V5.83333H14.5833V8.33333ZM3.42958 14.1667H10.7371C10.8867 14.1667 11.0096 14.1186 11.1058 14.0225C11.2019 13.9262 11.25 13.8033 11.25 13.6538V6.34625C11.25 6.19667 11.2019 6.07375 11.1058 5.9775C11.0096 5.88139 10.8867 5.83333 10.7371 5.83333H3.42958C3.27999 5.83333 3.15708 5.88139 3.06083 5.9775C2.96472 6.07375 2.91666 6.19667 2.91666 6.34625V13.6538C2.91666 13.8033 2.96472 13.9262 3.06083 14.0225C3.15708 14.1186 3.27999 14.1667 3.42958 14.1667ZM3.9102 12.4198H10.2565L8.22916 9.71146L6.66666 11.7948L5.52083 10.274L3.9102 12.4198ZM14.431 15C14.2323 15 14.0691 14.9362 13.9415 14.8085C13.8138 14.6809 13.75 14.5177 13.75 14.319V11.5144C13.75 11.3156 13.8138 11.1524 13.9415 11.0248C14.0691 10.8972 14.2323 10.8333 14.431 10.8333H17.2356C17.4344 10.8333 17.5976 10.8972 17.7252 11.0248C17.8528 11.1524 17.9167 11.3156 17.9167 11.5144V14.319C17.9167 14.5177 17.8528 14.6809 17.7252 14.8085C17.5976 14.9362 17.4344 15 17.2356 15H14.431ZM14.5833 14.1667H17.0833V11.6667H14.5833V14.1667Z" fill="#1C1B1F"/>
</g>
</svg>
