<svg width="20" height="20" viewBox="0 0 20 20" fill="none" xmlns="http://www.w3.org/2000/svg">
<mask id="mask0_169_1144" style="mask-type:alpha" maskUnits="userSpaceOnUse" x="0" y="0" width="20" height="20">
<rect width="20" height="20" fill="#D9D9D9"/>
</mask>
<g mask="url(#mask0_169_1144)">
<path d="M17.1602 10.4167H7.62814V9.58337H17.1602L15.4198 7.84296L16.0096 7.24358L18.7661 10L16.0096 12.7565L15.4198 12.1571L17.1602 10.4167ZM12.8365 7.27567V4.67962C12.8365 4.53004 12.7884 4.40712 12.6923 4.31087C12.5962 4.21476 12.4733 4.16671 12.3238 4.16671H4.67959C4.53001 4.16671 4.40709 4.21476 4.31084 4.31087C4.21473 4.40712 4.16668 4.53004 4.16668 4.67962V15.3205C4.16668 15.47 4.21473 15.593 4.31084 15.6892C4.40709 15.7853 4.53001 15.8334 4.67959 15.8334H12.3238C12.4733 15.8334 12.5962 15.7853 12.6923 15.6892C12.7884 15.593 12.8365 15.47 12.8365 15.3205V12.7244H13.6698V15.3205C13.6698 15.6934 13.5387 16.011 13.2765 16.2734C13.0141 16.5356 12.6965 16.6667 12.3238 16.6667H4.67959C4.30668 16.6667 3.98904 16.5356 3.72668 16.2734C3.46445 16.011 3.33334 15.6934 3.33334 15.3205V4.67962C3.33334 4.30671 3.46445 3.98907 3.72668 3.72671C3.98904 3.46449 4.30668 3.33337 4.67959 3.33337H12.3238C12.6965 3.33337 13.0141 3.46449 13.2765 3.72671C13.5387 3.98907 13.6698 4.30671 13.6698 4.67962V7.27567H12.8365Z" fill="#1C1B1F"/>
</g>
</svg>
