<svg width="16" height="14" viewBox="0 0 16 14" fill="none" xmlns="http://www.w3.org/2000/svg">
<path d="M1.84625 13.6667C1.46264 13.6667 1.14236 13.5382 0.885417 13.2813C0.628472 13.0243 0.5 12.7041 0.5 12.3205V4.17962C0.5 3.79601 0.628472 3.47574 0.885417 3.21879C1.14236 2.96185 1.46264 2.83337 1.84625 2.83337H5.5V1.67942C5.5 1.29594 5.62847 0.975735 5.88542 0.718791C6.14236 0.461846 6.46264 0.333374 6.84625 0.333374H9.15375C9.53736 0.333374 9.85764 0.461846 10.1146 0.718791C10.3715 0.975735 10.5 1.29594 10.5 1.67942V2.83337H14.1538C14.5374 2.83337 14.8576 2.96185 15.1146 3.21879C15.3715 3.47574 15.5 3.79601 15.5 4.17962V12.3205C15.5 12.7041 15.3715 13.0243 15.1146 13.2813C14.8576 13.5382 14.5374 13.6667 14.1538 13.6667H1.84625ZM1.84625 12.8334H14.1538C14.2821 12.8334 14.3997 12.78 14.5065 12.6732C14.6133 12.5664 14.6667 12.4488 14.6667 12.3205V4.17962C14.6667 4.05129 14.6133 3.93372 14.5065 3.82692C14.3997 3.72011 14.2821 3.66671 14.1538 3.66671H1.84625C1.71792 3.66671 1.60035 3.72011 1.49354 3.82692C1.38674 3.93372 1.33333 4.05129 1.33333 4.17962V12.3205C1.33333 12.4488 1.38674 12.5664 1.49354 12.6732C1.60035 12.78 1.71792 12.8334 1.84625 12.8334ZM6.33333 2.83337H9.66667V1.67942C9.66667 1.55122 9.61326 1.43372 9.50646 1.32692C9.39965 1.22011 9.28208 1.16671 9.15375 1.16671H6.84625C6.71792 1.16671 6.60035 1.22011 6.49354 1.32692C6.38674 1.43372 6.33333 1.55122 6.33333 1.67942V2.83337Z" fill="#1C1B1F"/>
</svg>
