<svg width="20" height="20" viewBox="0 0 20 20" fill="none" xmlns="http://www.w3.org/2000/svg">
<mask id="mask0_169_989" style="mask-type:alpha" maskUnits="userSpaceOnUse" x="0" y="0" width="20" height="20">
<rect width="20" height="20" fill="#D9D9D9"/>
</mask>
<g mask="url(#mask0_169_989)">
<path d="M10 17.5C8.65597 17.5 7.55611 17.3285 6.70042 16.9854C5.84458 16.6425 5.41667 16.1997 5.41667 15.6571C5.41667 15.3985 5.53875 15.1508 5.78292 14.9142C6.02694 14.6776 6.3616 14.4765 6.78687 14.3108L7.44229 14.8671C7.21049 14.9546 6.9709 15.0705 6.72354 15.2148C6.47618 15.359 6.32153 15.501 6.25958 15.641C6.35472 15.9167 6.75806 16.1566 7.46958 16.3606C8.18111 16.5647 9.02194 16.6667 9.99208 16.6667C10.9621 16.6667 11.8063 16.5647 12.5248 16.3606C13.2433 16.1566 13.6501 15.9167 13.7452 15.641C13.7015 15.4978 13.5417 15.3542 13.266 15.21C12.9903 15.0657 12.7297 14.9497 12.484 14.8621L13.1346 14.3012C13.5983 14.4701 13.9557 14.6728 14.2067 14.9094C14.4578 15.146 14.5833 15.3928 14.5833 15.6498C14.5833 16.1947 14.1554 16.6392 13.2996 16.9835C12.4439 17.3278 11.344 17.5 10 17.5ZM10.0208 13.9583C11.4065 12.8803 12.4439 11.8256 13.1329 10.7942C13.8221 9.76264 14.1667 8.74896 14.1667 7.75313C14.1667 6.29424 13.7179 5.19285 12.8204 4.44896C11.9231 3.70521 10.9856 3.33333 10.0079 3.33333C9.03042 3.33333 8.09028 3.70562 7.1875 4.45021C6.28472 5.19479 5.83333 6.29736 5.83333 7.75792C5.83333 8.71736 6.17625 9.70861 6.86208 10.7317C7.54806 11.7546 8.60097 12.8301 10.0208 13.9583ZM10 15C8.32139 13.7253 7.0684 12.4873 6.24104 11.286C5.41368 10.0848 5 8.90806 5 7.75583C5 6.88556 5.15035 6.12424 5.45104 5.47188C5.75187 4.81965 6.14264 4.27292 6.62333 3.83167C7.10417 3.39042 7.64188 3.05819 8.23646 2.835C8.83104 2.61167 9.41972 2.5 10.0025 2.5C10.5853 2.5 11.1731 2.61167 11.766 2.835C12.359 3.05819 12.8958 3.39042 13.3767 3.83167C13.8574 4.27292 14.2481 4.82014 14.549 5.47333C14.8497 6.12639 15 6.88632 15 7.75313C15 8.90576 14.5863 10.0829 13.759 11.2846C12.9316 12.4862 11.6786 13.7247 10 15ZM10.0079 8.99042C10.3756 8.99042 10.6905 8.86194 10.9527 8.605C11.2151 8.34806 11.3463 8.03049 11.3463 7.65229C11.3463 7.2741 11.2144 6.95382 10.9506 6.69146C10.687 6.42924 10.3701 6.29813 10 6.29813C9.63778 6.29813 9.32285 6.42993 9.05521 6.69354C8.78757 6.95715 8.65375 7.27403 8.65375 7.64417C8.65375 8.02778 8.78757 8.34806 9.05521 8.605C9.32285 8.86194 9.64042 8.99042 10.0079 8.99042Z" fill="#1C1B1F"/>
</g>
</svg>
