<svg width="20" height="20" viewBox="0 0 20 20" fill="none" xmlns="http://www.w3.org/2000/svg">
<mask id="mask0_169_1135" style="mask-type:alpha" maskUnits="userSpaceOnUse" x="0" y="0" width="20" height="20">
<rect width="20" height="20" fill="#D9D9D9"/>
</mask>
<g mask="url(#mask0_169_1135)">
<path d="M14.1667 14.1667C14.5139 14.1667 14.809 14.0452 15.0521 13.8021C15.2951 13.5591 15.4167 13.2639 15.4167 12.9167C15.4167 12.5695 15.2951 12.2743 15.0521 12.0313C14.809 11.7882 14.5139 11.6667 14.1667 11.6667C13.8194 11.6667 13.5243 11.7882 13.2812 12.0313C13.0382 12.2743 12.9167 12.5695 12.9167 12.9167C12.9167 13.2639 13.0382 13.5591 13.2812 13.8021C13.5243 14.0452 13.8194 14.1667 14.1667 14.1667ZM14.1667 16.6667C14.6079 16.6667 15.0064 16.5687 15.3621 16.3725C15.7179 16.1766 16.0123 15.9119 16.2452 15.5786C15.9289 15.3873 15.5972 15.2431 15.25 15.1459C14.9028 15.0487 14.5417 15 14.1667 15C13.7917 15 13.4305 15.0487 13.0833 15.1459C12.7361 15.2431 12.4044 15.3873 12.0881 15.5786C12.321 15.9119 12.6154 16.1766 12.9712 16.3725C13.3269 16.5687 13.7254 16.6667 14.1667 16.6667ZM9.99999 17.468C8.32582 16.9712 6.93506 15.957 5.8277 14.4255C4.72034 12.8939 4.16666 11.1688 4.16666 9.25004V4.74358L9.99999 2.56421L15.8333 4.74358V9.45671C15.7083 9.40976 15.571 9.36782 15.4214 9.33088C15.2719 9.29407 15.1314 9.26018 15 9.22921V5.31733L9.99999 3.45838L4.99999 5.31733V9.25004C4.99999 10.0738 5.12152 10.8628 5.36457 11.6171C5.60763 12.3713 5.93881 13.0649 6.35811 13.698C6.77742 14.331 7.27346 14.8841 7.84624 15.3573C8.41888 15.8307 9.02943 16.1913 9.67791 16.4392L9.72603 16.4232C9.79325 16.5898 9.87707 16.7517 9.97749 16.9088C10.0779 17.0657 10.1917 17.2132 10.3189 17.3511C10.2623 17.3723 10.2091 17.3918 10.1594 17.4094C10.1098 17.4271 10.0567 17.4466 9.99999 17.468ZM14.1667 17.5C13.2382 17.5 12.4505 17.1766 11.8037 16.5296C11.1568 15.8828 10.8333 15.0952 10.8333 14.1667C10.8333 13.2382 11.1568 12.4506 11.8037 11.8038C12.4505 11.1568 13.2382 10.8334 14.1667 10.8334C15.0951 10.8334 15.8828 11.1568 16.5296 11.8038C17.1765 12.4506 17.5 13.2382 17.5 14.1667C17.5 15.0952 17.1765 15.8828 16.5296 16.5296C15.8828 17.1766 15.0951 17.5 14.1667 17.5Z" fill="#1C1B1F"/>
</g>
</svg>
