<svg width="100" height="104" viewBox="0 0 100 104" fill="none" xmlns="http://www.w3.org/2000/svg">
<rect width="100" height="103.125" rx="50" fill="#EADDFF"/>
<path fill-rule="evenodd" clip-rule="evenodd" d="M65.0006 41.25C65.0006 49.7932 58.2849 56.7188 50.0006 56.7188C41.7163 56.7188 35.0006 49.7932 35.0006 41.25C35.0006 32.7068 41.7163 25.7812 50.0006 25.7812C58.2849 25.7812 65.0006 32.7068 65.0006 41.25ZM60.0006 41.25C60.0006 46.9454 55.5235 51.5625 50.0006 51.5625C44.4778 51.5625 40.0006 46.9454 40.0006 41.25C40.0006 35.5546 44.4778 30.9375 50.0006 30.9375C55.5235 30.9375 60.0006 35.5546 60.0006 41.25Z" fill="#21005D"/>
<path d="M50.0006 64.4531C33.8147 64.4531 20.0238 74.3232 14.7705 88.1514C16.0502 89.4619 17.3984 90.7014 18.8088 91.8639C22.7207 79.1683 34.9924 69.6094 50.0006 69.6094C65.0088 69.6094 77.2806 79.1683 81.1924 91.8639C82.6029 90.7015 83.951 89.4619 85.2307 88.1514C79.9775 74.3233 66.1866 64.4531 50.0006 64.4531Z" fill="#21005D"/>
</svg>
