<svg width="20" height="20" viewBox="0 0 20 20" fill="none" xmlns="http://www.w3.org/2000/svg">
<mask id="mask0_169_1126" style="mask-type:alpha" maskUnits="userSpaceOnUse" x="0" y="0" width="20" height="20">
<rect width="20" height="20" fill="#D9D9D9"/>
</mask>
<g mask="url(#mask0_169_1126)">
<path d="M17.5 5.51288V14.487C17.5 14.8707 17.3715 15.1909 17.1146 15.4479C16.8576 15.7048 16.5374 15.8333 16.1538 15.8333H3.84625C3.46264 15.8333 3.14236 15.7048 2.88542 15.4479C2.62847 15.1909 2.5 14.8707 2.5 14.487V5.51288C2.5 5.12926 2.62847 4.80899 2.88542 4.55204C3.14236 4.2951 3.46264 4.16663 3.84625 4.16663H16.1538C16.5374 4.16663 16.8576 4.2951 17.1146 4.55204C17.3715 4.80899 17.5 5.12926 17.5 5.51288ZM3.33333 7.33975H16.6667V5.51288C16.6667 5.38454 16.6133 5.26697 16.5065 5.16017C16.3997 5.05336 16.2821 4.99996 16.1538 4.99996H3.84625C3.71792 4.99996 3.60035 5.05336 3.49354 5.16017C3.38674 5.26697 3.33333 5.38454 3.33333 5.51288V7.33975ZM3.33333 9.32683V14.487C3.33333 14.6154 3.38674 14.7329 3.49354 14.8398C3.60035 14.9466 3.71792 15 3.84625 15H16.1538C16.2821 15 16.3997 14.9466 16.5065 14.8398C16.6133 14.7329 16.6667 14.6154 16.6667 14.487V9.32683H3.33333Z" fill="#1C1B1F"/>
</g>
</svg>
